PathFileType  4	(X/Y/Z) D:\Research_projects\MuscleProsody\BulkSports2Dtrack\RetrackedSports2D\p1_sample60_cam3\p1_sample60_cam3_Sports2D\pose-3d
DataRate	CameraRate	NumFrames	NumMarkers	Units	OrigDataRate	OrigDataStartFrame	OrigNumFrames
60.0	60.0	17	22	m	60.0	292	780
Frame#	Time	Hip			RHip			RKnee			RAnkle			RBigToe			RSmallToe			RHeel			LHip			LKnee			LAnkle			LBigToe			LSmallToe			LHeel			Neck			Head			Nose			RShoulder			RElbow			RWrist			LShoulder			LElbow			LWrist			
		X1	Y1	Z1	X2	Y2	Z2	X3	Y3	Z3	X4	Y4	Z4	X5	Y5	Z5	X6	Y6	Z6	X7	Y7	Z7	X8	Y8	Z8	X9	Y9	Z9	X10	Y10	Z10	X11	Y11	Z11	X12	Y12	Z12	X13	Y13	Z13	X14	Y14	Z14	X15	Y15	Z15	X16	Y16	Z16	X17	Y17	Z17	X18	Y18	Z18	X19	Y19	Z19	X20	Y20	Z20	X21	Y21	Z21	X22	Y22	Z22	

293	4.8666667	0.5193668	0.8487669	0.0301000	0.4313344	0.8136020	0.0301000	0.5886294	0.4466110	0.1290000	0.7695866	0.1533054	0.0230000	0.7068079	-0.0005954	0.2179000	0.6840508	0.0293675	0.1804000	0.8243634	0.1193392	-0.0119000	0.5997961	0.8678765	0.0301000	0.7439903	0.4855537	0.1290000	0.9136187	0.1434933	0.0230000	0.8497060	-0.0067966	0.2179000	0.9226767	0.0094746	0.1804000	0.9633480	0.1267377	-0.0119000	0.2527176	1.3866637	0.0008000	0.0044292	1.6016108	0.0655000	0.0402621	1.4157871	0.1076000	0.1698672	1.2781008	-0.0127500	0.1706493	1.1436175	0.0702000	0.0144605	1.0514573	0.1076000	0.4604156	1.3950686	-0.0127500	0.7498410	1.3690803	0.0702000	1.0220824	1.3739982	0.1076000
294	4.8833333	0.5193313	0.8494921	0.0301000	0.4312152	0.8141713	0.0301000	0.5892796	0.4460822	0.1290000	0.7700371	0.1525420	0.0230000	0.7062798	-0.0003377	0.2179000	0.6832960	0.0293057	0.1804000	0.8243309	0.1198414	-0.0119000	0.6002520	0.8684420	0.0301000	0.7444001	0.4857413	0.1290000	0.9140780	0.1426143	0.0230000	0.8503749	-0.0068474	0.2179000	0.9221525	0.0103433	0.1804000	0.9622313	0.1263874	-0.0119000	0.2544344	1.3876221	0.0008000	0.0088947	1.6029542	0.0655000	0.0438206	1.4174592	0.1076000	0.1687034	1.2796446	-0.0127500	0.1448083	1.1522751	0.0702000	-0.0264166	1.0785737	0.1076000	0.4597563	1.3979650	-0.0127500	0.7443020	1.3835447	0.0702000	0.9931499	1.4165225	0.1076000
295	4.9000000	0.5192773	0.8501768	0.0301000	0.4311890	0.8149436	0.0301000	0.5897651	0.4460600	0.1290000	0.7703523	0.1519475	0.0230000	0.7056655	-0.0001336	0.2179000	0.6824185	0.0292951	0.1804000	0.8242169	0.1205474	-0.0119000	0.6006742	0.8693006	0.0301000	0.7446443	0.4865861	0.1290000	0.9146364	0.1418860	0.0230000	0.8510314	-0.0068557	0.2179000	0.9215278	0.0111946	0.1804000	0.9610975	0.1262061	-0.0119000	0.2564367	1.3888465	0.0008000	0.0145589	1.6049765	0.0655000	0.0482315	1.4196979	0.1076000	0.1676534	1.2809324	-0.0127500	0.1185103	1.1596085	0.0702000	-0.0680393	1.1037208	0.1076000	0.4592386	1.4009225	-0.0127500	0.7366861	1.3957166	0.0702000	0.9551229	1.4548593	0.1076000
296	4.9166667	0.5192038	0.8507659	0.0301000	0.4312096	0.8158358	0.0301000	0.5900936	0.4464360	0.1290000	0.7704815	0.1514860	0.0230000	0.7050198	0.0000716	0.2179000	0.6814881	0.0293931	0.1804000	0.8239520	0.1213448	-0.0119000	0.6010235	0.8703828	0.0301000	0.7447438	0.4879528	0.1290000	0.9152582	0.1413622	0.0230000	0.8516513	-0.0067894	0.2179000	0.9208492	0.0120320	0.1804000	0.9599873	0.1261854	-0.0119000	0.2586917	1.3903201	0.0008000	0.0212221	1.6076251	0.0655000	0.0533593	1.4224545	0.1076000	0.1667125	1.2820724	-0.0127500	0.0925479	1.1657656	0.0702000	-0.1090292	1.1268509	0.1076000	0.4588543	1.4038997	-0.0127500	0.7270420	1.4055320	0.0702000	0.9089028	1.4887829	0.1076000
297	4.9333333	0.5191068	0.8512169	0.0301000	0.4312299	0.8167622	0.0301000	0.5902794	0.4470981	0.1290000	0.7704064	0.1511342	0.0230000	0.7044040	0.0003220	0.2179000	0.6805527	0.0296456	0.1804000	0.8235254	0.1221370	-0.0119000	0.6012586	0.8716006	0.0301000	0.7447170	0.4896736	0.1290000	0.9158945	0.1410806	0.0230000	0.8522086	-0.0066181	0.2179000	0.9201781	0.0128464	0.1804000	0.9589398	0.1262839	-0.0119000	0.2611732	1.3920067	0.0008000	0.0286409	1.6108021	0.0655000	0.0590460	1.4256486	0.1076000	0.1659470	1.2831592	-0.0127500	0.0677078	1.1708429	0.0702000	-0.1480733	1.1478428	0.1076000	0.4586349	1.4068255	-0.0127500	0.7153576	1.4128533	0.0702000	0.8555047	1.5178998	0.1076000
298	4.9500000	0.5189752	0.8514942	0.0301000	0.4312069	0.8176358	0.0301000	0.5903478	0.4479314	0.1290000	0.7701517	0.1508901	0.0230000	0.7038873	0.0006337	0.2179000	0.6796466	0.0300687	0.1804000	0.8229839	0.1228519	-0.0119000	0.6013492	0.8728481	0.0301000	0.7445918	0.4915710	0.1290000	0.9164969	0.1410515	0.0230000	0.8526911	-0.0063234	0.2179000	0.9196005	0.0136017	0.1804000	0.9580017	0.1264380	-0.0119000	0.2638557	1.3938581	0.0008000	0.0365507	1.6143736	0.0655000	0.0651234	1.4291754	0.1076000	0.1654883	1.2842591	-0.0127500	0.0447133	1.1748746	0.0702000	-0.1839909	1.1664975	0.1076000	0.4586482	1.4096113	-0.0127500	0.7015221	1.4174649	0.0702000	0.7960146	1.5416148	0.1076000
299	4.9666667	0.5188046	0.8515667	0.0301000	0.4311193	0.8183677	0.0301000	0.5903364	0.4488266	0.1290000	0.7697786	0.1507646	0.0230000	0.7035375	0.0009859	0.2179000	0.6787961	0.0306348	0.1804000	0.8224079	0.1234426	-0.0119000	0.6012967	0.8740109	0.0301000	0.7444079	0.4934737	0.1290000	0.9170312	0.1412557	0.0230000	0.8531134	-0.0059061	0.2179000	0.9192141	0.0142411	0.1804000	0.9572290	0.1265850	-0.0119000	0.2667197	1.3958220	0.0008000	0.0446965	1.6181882	0.0655000	0.0714258	1.4329163	0.1076000	0.1655113	1.2854096	-0.0127500	0.0242107	1.1778412	0.0702000	-0.2157184	1.1825389	0.1076000	0.4589855	1.4121636	-0.0127500	0.6853643	1.4190910	0.0702000	0.7316273	1.5591651	0.1076000
300	4.9833333	0.5186104	0.8514133	0.0301000	0.4309848	0.8188695	0.0301000	0.5902897	0.4496958	0.1290000	0.7693738	0.1507521	0.0230000	0.7033849	0.0013386	0.2179000	0.6780106	0.0312833	0.1804000	0.8218859	0.1238853	-0.0119000	0.6011364	0.8749707	0.0301000	0.7442054	0.4952304	0.1290000	0.9174802	0.1416500	0.0230000	0.8535100	-0.0053872	0.2179000	0.9190937	0.0147168	0.1804000	0.9566627	0.1266955	-0.0119000	0.2697592	1.3978487	0.0008000	0.0528536	1.6220931	0.0655000	0.0778003	1.4367536	0.1076000	0.1661998	1.2866176	-0.0127500	0.0067869	1.1796817	0.0702000	-0.2422438	1.1956092	0.1076000	0.4597408	1.4143797	-0.0127500	0.6667850	1.4174396	0.0702000	0.6637385	1.5697316	0.1076000
301	5.0000000	0.5184282	0.8510333	0.0301000	0.4308540	0.8190706	0.0301000	0.5902446	0.4504866	0.1290000	0.7690251	0.1508244	0.0230000	0.7034045	0.0016552	0.2179000	0.6772858	0.0319415	0.1804000	0.8214928	0.1241827	-0.0119000	0.6009217	0.8756194	0.0301000	0.7440131	0.4967318	0.1290000	0.9178354	0.1421800	0.0230000	0.8539131	-0.0048057	0.2179000	0.9192645	0.0150094	0.1804000	0.9563025	0.1267801	-0.0119000	0.2729760	1.3998935	0.0008000	0.0608352	1.6259499	0.0655000	0.0841138	1.4405804	0.1076000	0.1677003	1.2878578	-0.0127500	-0.0070495	1.1803047	0.0702000	-0.2626279	1.2052961	0.1076000	0.4609982	1.4161497	-0.0127500	0.6458895	1.4122718	0.0702000	0.5939416	1.5726015	0.1076000
302	5.0166667	0.5183034	0.8504510	0.0301000	0.4307859	0.8189426	0.0301000	0.5902182	0.4511847	0.1290000	0.7687910	0.1509619	0.0230000	0.7035524	0.0019025	0.2179000	0.6766301	0.0325327	0.1804000	0.8212713	0.1243593	-0.0119000	0.6007119	0.8758844	0.0301000	0.7438471	0.4979287	0.1290000	0.9180879	0.1427921	0.0230000	0.8543402	-0.0042146	0.2179000	0.9197001	0.0151153	0.1804000	0.9561161	0.1268651	-0.0119000	0.2763614	1.4019151	0.0008000	0.0684936	1.6296478	0.0655000	0.0902568	1.4442991	0.1076000	0.1700833	1.2890746	-0.0127500	-0.0169161	1.1796027	0.0702000	-0.2761044	1.2111820	0.1076000	0.4628340	1.4173799	-0.0127500	0.6230360	1.4034698	0.0702000	0.5239421	1.5672930	0.1076000
303	5.0333333	0.5182758	0.8497114	0.0301000	0.4308323	0.8185099	0.0301000	0.5902042	0.4518154	0.1290000	0.7686892	0.1511733	0.0230000	0.7038093	0.0020435	0.2179000	0.6760803	0.0329812	0.1804000	0.8212306	0.1244491	-0.0119000	0.6005641	0.8757455	0.0301000	0.7437082	0.4988373	0.1290000	0.9182249	0.1434415	0.0230000	0.8547924	-0.0036737	0.2179000	0.9203358	0.0150278	0.1804000	0.9560710	0.1269661	-0.0119000	0.2798804	1.4038639	0.0008000	0.0757107	1.6331059	0.0655000	0.0961354	1.4478094	0.1076000	0.1733302	1.2901880	-0.0127500	-0.0225763	1.1774707	0.0702000	-0.2821416	1.2128860	0.1076000	0.4653057	1.4180022	-0.0127500	0.5988087	1.3910738	0.0702000	0.4555113	1.5536074	0.1076000
304	5.0500000	0.5183645	0.8488718	0.0301000	0.4310352	0.8178365	0.0301000	0.5901759	0.4524446	0.1290000	0.7687062	0.1514821	0.0230000	0.7041766	0.0020488	0.2179000	0.6756870	0.0332345	0.1804000	0.8213631	0.1244944	-0.0119000	0.6005197	0.8752301	0.0301000	0.7435761	0.4995349	0.1290000	0.9182340	0.1440956	0.0230000	0.8552500	-0.0032432	0.2179000	0.9210807	0.0147404	0.1804000	0.9561462	0.1270838	-0.0119000	0.2834653	1.4056723	0.0008000	0.0823909	1.6362635	0.0655000	0.1016610	1.4510052	0.1076000	0.1773453	1.2911041	-0.0127500	-0.0239263	1.1738251	0.0702000	-0.2804611	1.2101015	0.1076000	0.4684014	1.4179466	-0.0127500	0.5739533	1.3752834	0.0702000	0.3904277	1.5316470	0.1076000
305	5.0666667	0.5185663	0.8479906	0.0301000	0.4314173	0.8170004	0.0301000	0.5900918	0.4531664	0.1290000	0.7688123	0.1519081	0.0230000	0.7046510	0.0019093	0.2179000	0.6754946	0.0332794	0.1804000	0.8216550	0.1245466	-0.0119000	0.6005933	0.8743962	0.0301000	0.7434058	0.5001378	0.1290000	0.9181072	0.1447344	0.0230000	0.8556774	-0.0029714	0.2179000	0.9218309	0.0142594	0.1804000	0.9563258	0.1272151	-0.0119000	0.2870150	1.4072594	0.0008000	0.0884727	1.6390705	0.0655000	0.1067438	1.4537839	0.1076000	0.1819705	1.2917297	-0.0127500	-0.0209866	1.1686174	0.0702000	-0.2710669	1.2026342	0.1076000	0.4719817	1.4171105	-0.0127500	0.5493039	1.3564258	0.0702000	0.3303610	1.5018106	0.1076000
306	5.0833333	0.5188682	0.8471154	0.0301000	0.4319721	0.8160717	0.0301000	0.5899026	0.4540771	0.1290000	0.7689712	0.1524618	0.0230000	0.7052200	0.0016241	0.2179000	0.6755342	0.0331302	0.1804000	0.8220911	0.1246571	-0.0119000	0.6007750	0.8733192	0.0301000	0.7431368	0.5007611	0.1290000	0.9178426	0.1453465	0.0230000	0.8560349	-0.0028845	0.2179000	0.9224872	0.0136049	0.1804000	0.9566025	0.1273652	-0.0119000	0.2903952	1.4085552	0.0008000	0.0939290	1.6414924	0.0655000	0.1112806	1.4560600	0.1076000	0.1869874	1.2919842	-0.0127500	-0.0139069	1.1618491	0.0702000	-0.2542842	1.1904349	0.1076000	0.4757797	1.4153916	-0.0127500	0.5257639	1.3349233	0.0702000	0.2768180	1.4647766	0.1076000
307	5.1000000	0.5192575	0.8462768	0.0301000	0.4326685	0.8151085	0.0301000	0.5895628	0.4552470	0.1290000	0.7691481	0.1531367	0.0230000	0.7058720	0.0011855	0.2179000	0.6758230	0.0328094	0.1804000	0.8226615	0.1248662	-0.0119000	0.6010386	0.8720893	0.0301000	0.7427115	0.5014826	0.1290000	0.9174523	0.1459217	0.0230000	0.8562860	-0.0029880	0.2179000	0.9229748	0.0128035	0.1804000	0.9569851	0.1275538	-0.0119000	0.2934494	1.4095262	0.0008000	0.0987380	1.6435256	0.0655000	0.1151500	1.4577896	0.1076000	0.1921326	1.2918103	-0.0127500	-0.0029755	1.1535865	0.0702000	-0.2307872	1.1736283	0.1076000	0.4794776	1.4127754	-0.0127500	0.5043211	1.3112858	0.0702000	0.2311477	1.4214788	0.1076000
308	5.1166667	0.5197202	0.8454933	0.0301000	0.4334654	0.8141664	0.0301000	0.5890447	0.4566955	0.1290000	0.7693203	0.1538988	0.0230000	0.7065937	0.0005842	0.2179000	0.6763597	0.0323459	0.1804000	0.8233618	0.1251971	-0.0119000	0.6013485	0.8708127	0.0301000	0.7420994	0.5023350	0.1290000	0.9169742	0.1464429	0.0230000	0.8563962	-0.0032774	0.2179000	0.9232501	0.0118813	0.1804000	0.9574871	0.1278083	-0.0119000	0.2960252	1.4101745	0.0008000	0.1028571	1.6451972	0.0655000	0.1182354	1.4589913	0.1076000	0.1971445	1.2911709	-0.0127500	0.0113710	1.1439646	0.0702000	-0.2015912	1.1525084	0.1076000	0.4827982	1.4093755	-0.0127500	0.4860040	1.2861221	0.0702000	0.1945045	1.3730512	0.1076000
309	5.1333333	0.5202344	0.8447781	0.0301000	0.4343215	0.8133081	0.0301000	0.5883436	0.4583849	0.1290000	0.7694797	0.1546894	0.0230000	0.7073605	-0.0001755	0.2179000	0.6771183	0.0317794	0.1804000	0.8241867	0.1256559	-0.0119000	0.6016700	0.8696101	0.0301000	0.7413058	0.5033154	0.1290000	0.9164691	0.1468877	0.0230000	0.8563286	-0.0037440	0.2179000	0.9232903	0.0108621	0.1804000	0.9581108	0.1281484	-0.0119000	0.2980036	1.4105178	0.0008000	0.1062279	1.6465473	0.0655000	0.1204610	1.4597294	0.1076000	0.2018091	1.2900419	-0.0127500	0.0285465	1.1331756	0.0702000	-0.1680005	1.1274955	0.1076000	0.4855561	1.4053935	-0.0127500	0.4717674	1.2601439	0.0702000	0.1677927	1.3207753	0.1076000
